<svg width="265" height="1870" viewBox="0 0 265 1870" fill="none" xmlns="http://www.w3.org/2000/svg">
<rect x="0.114204" y="0.704151" width="28.9178" height="137.394" transform="matrix(0.80597 0.591956 -0.577563 0.816347 139.853 642.375)" fill="#CEB3E2" stroke="#05312F"/>
<rect x="0.114204" y="0.704151" width="28.9178" height="137.394" transform="matrix(0.80597 0.591956 -0.577563 0.816347 133.36 0.0617162)" fill="#CEB3E2" stroke="#05312F"/>
<path d="M180.783 501.191L189.019 616.74L70.2389 528.322L180.783 501.191Z" fill="#CEB3E2"/>
<path d="M180.783 501.191L189.019 616.74L70.2389 528.322L180.783 501.191Z" fill="#CEB3E2"/>
<path d="M171.783 187.17L180.019 302.718L61.2389 214.3L171.783 187.17Z" fill="#F4CF69"/>
<path d="M80.7033 195.067L189.641 168.331L197.758 282.2L80.7033 195.067Z" fill="#F4C5B9" stroke="#05312F"/>
<path d="M86.2555 513.414L195.193 486.678L203.31 600.548L86.2555 513.414Z" fill="#F4CF69" stroke="#05312F"/>
<circle cx="121.5" cy="846.5" r="32" fill="#CEB3E2" stroke="#F4C5B9"/>
<path d="M162.5 832C162.5 849.383 147.964 863.5 130 863.5C112.036 863.5 97.5 849.383 97.5 832C97.5 814.617 112.036 800.5 130 800.5C147.964 800.5 162.5 814.617 162.5 832Z" fill="#BFD0A0" stroke="#05312F"/>
<path d="M162.783 1361.19L171.019 1476.74L52.2389 1388.32L162.783 1361.19Z" fill="#CEB3E2"/>
<path d="M162.783 1361.19L171.019 1476.74L52.2389 1388.32L162.783 1361.19Z" fill="#CEB3E2"/>
<path d="M68.2555 1373.41L177.193 1346.68L185.31 1460.55L68.2555 1373.41Z" fill="#F4CF69" stroke="#05312F"/>
<path d="M128 1196.46L136.96 1221.08L137.079 1221.41H137.43H166.255L142.985 1236.51L142.651 1236.72L142.788 1237.1L151.707 1261.61L128.272 1246.4L128 1246.23L127.728 1246.4L104.293 1261.61L113.212 1237.1L113.349 1236.72L113.015 1236.51L89.7451 1221.41H118.57H118.921L119.04 1221.08L128 1196.46Z" fill="#05312F" stroke="#CEB3E2"/>
<path d="M136 1188.44L144.96 1212.74L145.081 1213.07H145.43H174.236L150.988 1227.95L150.649 1228.16L150.788 1228.54L159.703 1252.71L136.27 1237.71L136 1237.54L135.73 1237.71L112.297 1252.71L121.212 1228.54L121.351 1228.16L121.012 1227.95L97.7643 1213.07H126.57H126.919L127.04 1212.74L136 1188.44Z" fill="#F4CF69" stroke="black"/>
<path d="M136.783 1004.19L145.019 1119.74L26.2389 1031.32L136.783 1004.19Z" fill="#CEB3E2"/>
<path d="M136.783 1004.19L145.019 1119.74L26.2389 1031.32L136.783 1004.19Z" fill="#CEB3E2"/>
<path d="M42.2555 1016.41L151.193 989.678L159.31 1103.55L42.2555 1016.41Z" fill="#C8E6E0" stroke="#05312F"/>
<path d="M121 345L130.43 370.912H160.944L136.257 386.926L145.687 412.838L121 396.824L96.313 412.838L105.743 386.926L81.0556 370.912H111.57L121 345Z" fill="#05312F"/>
<path d="M111 334.479L119.959 359.426L120.078 359.757H120.43H149.273L125.983 375.067L125.654 375.284L125.787 375.654L134.71 400.502L111.275 385.097L111 384.916L110.725 385.097L87.2897 400.502L96.2132 375.654L96.3463 375.284L96.0173 375.067L72.7265 359.757H101.57H101.922L102.041 359.426L111 334.479Z" fill="#BFD0A0" stroke="#05312F"/>
<rect x="0.113249" y="0.698147" width="28.7298" height="135.734" transform="matrix(0.811069 0.584951 -0.584571 0.811342 146.36 1741.07)" fill="#CEB3E2" stroke="#05312F"/>
<path d="M105 1491L114.43 1516.22H144.944L120.257 1531.81L129.687 1557.03L105 1541.44L80.313 1557.03L89.7426 1531.81L65.0556 1516.22H95.5704L105 1491Z" fill="#05312F"/>
<path d="M121 1484.43L129.961 1508.4L130.083 1508.72H130.43H159.216L135.99 1523.39L135.647 1523.6L135.789 1523.98L144.699 1547.81L121.267 1533.02L121 1532.85L120.733 1533.02L97.3012 1547.81L106.211 1523.98L106.353 1523.6L106.01 1523.39L82.784 1508.72H111.57H111.917L112.039 1508.4L121 1484.43Z" fill="#F4CF69" stroke="black"/>
<ellipse cx="146.5" cy="1689" rx="33.5" ry="32" fill="#CEB3E2"/>
<path d="M157.5 1679C157.5 1696.38 142.964 1710.5 125 1710.5C107.036 1710.5 92.5 1696.38 92.5 1679C92.5 1661.62 107.036 1647.5 125 1647.5C142.964 1647.5 157.5 1661.62 157.5 1679Z" fill="#BFD0A0" stroke="#05312F"/>
</svg>
