<svg width="259" height="1733" viewBox="0 0 259 1733" fill="none" xmlns="http://www.w3.org/2000/svg">
<rect x="0.114204" y="0.704151" width="28.9178" height="137.394" transform="matrix(0.80597 0.591956 -0.577563 0.816347 199.36 182.062)" fill="#CEB3E2" stroke="#05312F"/>
<rect x="-0.343409" y="0.622137" width="29.2432" height="135.89" transform="matrix(0.272558 0.96214 -0.959375 0.282134 195.676 931.777)" fill="#CEB3E2" stroke="#05312F"/>
<path d="M176.783 529.844L185.019 645.393L66.2389 556.975L176.783 529.844Z" fill="#F4CF69"/>
<path d="M74.8244 533.414L183.762 506.678L191.879 620.548L74.8244 533.414Z" fill="#F4C5B9" stroke="#05312F"/>
<path d="M161.783 71.5992L170.019 187.147L51.2389 98.7295L161.783 71.5992Z" fill="#CEB3E2"/>
<rect x="0.114204" y="0.704151" width="28.9178" height="137.394" transform="matrix(0.80597 0.591956 -0.577563 0.816347 199.36 182.062)" fill="#CEB3E2" stroke="#05312F"/>
<path d="M176.783 529.844L185.019 645.393L66.2389 556.975L176.783 529.844Z" fill="#F4CF69"/>
<path d="M74.8244 533.414L183.762 506.678L191.879 620.548L74.8244 533.414Z" fill="#F4C5B9" stroke="#05312F"/>
<path d="M161.783 71.5992L170.019 187.147L51.2389 98.7295L161.783 71.5992Z" fill="#CEB3E2"/>
<path d="M67.2557 78.4145L176.194 51.6784L184.31 165.548L67.2557 78.4145Z" fill="#F4CF69" stroke="#05312F"/>
<path d="M158 854L167.43 879.566H197.944L173.257 895.367L182.687 920.934L158 905.133L133.313 920.934L142.743 895.367L118.056 879.566H148.57L158 854Z" fill="#05312F"/>
<path d="M150 842.462L158.96 867.083L159.079 867.412H159.43H188.255L164.985 882.507L164.651 882.723L164.788 883.097L173.707 907.606L150.272 892.404L150 892.228L149.728 892.404L126.293 907.606L135.212 883.097L135.349 882.723L135.015 882.507L111.745 867.412H140.57H140.921L141.04 867.083L150 842.462Z" fill="#BFD0A0" stroke="#05312F"/>
<ellipse cx="154" cy="739.5" rx="33" ry="32.5" fill="#CEB3E2"/>
<circle cx="133.5" cy="729.5" r="32" fill="#BFD0A0" stroke="#05312F"/>
<circle cx="186.5" cy="425.5" r="32.5" fill="#D9D9D9"/>
<circle cx="186.5" cy="425.5" r="32.5" fill="#05312F"/>
<circle cx="175.5" cy="414.5" r="32" fill="#D9D9D9"/>
<circle cx="175.5" cy="414.5" r="32" fill="#D9D9D9"/>
<circle cx="175.5" cy="414.5" r="32" fill="#C8E6E0"/>
<circle cx="175.5" cy="414.5" r="32" stroke="#05312F"/>
<path d="M182.007 1393.66L190.243 1507.13L71.4624 1420.31L182.007 1393.66Z" fill="#F4CF69"/>
<path d="M80.0603 1397.17L188.982 1370.92L197.098 1482.72L80.0603 1397.17Z" fill="#F4C5B9" stroke="#05312F"/>
<path d="M136.783 1073.31L145.019 1186.77L26.239 1099.95L136.783 1073.31Z" fill="#CEB3E2"/>
<path d="M42.2681 1080L151.19 1053.75L159.305 1165.55L42.2681 1080Z" fill="#F4CF69" stroke="#05312F"/>
<path d="M107 1503L116.43 1528.22H146.944L122.257 1543.81L131.687 1569.03L107 1553.44L82.313 1569.03L91.7426 1543.81L67.0556 1528.22H97.5704L107 1503Z" fill="#05312F"/>
<path d="M123 1496.43L131.961 1520.4L132.083 1520.72H132.43H161.216L137.99 1535.39L137.647 1535.6L137.789 1535.98L146.699 1559.81L123.267 1545.02L123 1544.85L122.733 1545.02L99.3012 1559.81L108.211 1535.98L108.353 1535.6L108.01 1535.39L84.784 1520.72H113.57H113.917L114.039 1520.4L123 1496.43Z" fill="#F4CF69" stroke="black"/>
<ellipse cx="148.5" cy="1701" rx="33.5" ry="32" fill="#CEB3E2"/>
<path d="M159.5 1691C159.5 1708.38 144.964 1722.5 127 1722.5C109.036 1722.5 94.5 1708.38 94.5 1691C94.5 1673.62 109.036 1659.5 127 1659.5C144.964 1659.5 159.5 1673.62 159.5 1691Z" fill="#BFD0A0" stroke="#05312F"/>
<ellipse cx="151" cy="1305.5" rx="33" ry="32.5" fill="#D9D9D9"/>
<ellipse cx="151" cy="1305.5" rx="33" ry="32.5" fill="#05312F"/>
<path d="M173.5 1294C173.5 1311.38 158.747 1325.5 140.5 1325.5C122.253 1325.5 107.5 1311.38 107.5 1294C107.5 1276.62 122.253 1262.5 140.5 1262.5C158.747 1262.5 173.5 1276.62 173.5 1294Z" fill="#D9D9D9"/>
<path d="M173.5 1294C173.5 1311.38 158.747 1325.5 140.5 1325.5C122.253 1325.5 107.5 1311.38 107.5 1294C107.5 1276.62 122.253 1262.5 140.5 1262.5C158.747 1262.5 173.5 1276.62 173.5 1294Z" fill="#D9D9D9"/>
<path d="M173.5 1294C173.5 1311.38 158.747 1325.5 140.5 1325.5C122.253 1325.5 107.5 1311.38 107.5 1294C107.5 1276.62 122.253 1262.5 140.5 1262.5C158.747 1262.5 173.5 1276.62 173.5 1294Z" fill="#C8E6E0"/>
<path d="M173.5 1294C173.5 1311.38 158.747 1325.5 140.5 1325.5C122.253 1325.5 107.5 1311.38 107.5 1294C107.5 1276.62 122.253 1262.5 140.5 1262.5C158.747 1262.5 173.5 1276.62 173.5 1294Z" stroke="#05312F"/>
</svg>
