<?xml version="1.0" standalone="no"?>
<!DOCTYPE svg PUBLIC "-//W3C//DTD SVG 20010904//EN"
 "http://www.w3.org/TR/2001/REC-SVG-20010904/DTD/svg10.dtd">
<svg version="1.0" xmlns="http://www.w3.org/2000/svg"
 width="512.000000pt" height="512.000000pt" viewBox="0 0 512.000000 512.000000"
 preserveAspectRatio="xMidYMid meet">
<metadata>
Created by potrace 1.16, written by Peter Selinger 2001-2019
</metadata>
<g transform="translate(0.000000,512.000000) scale(0.100000,-0.100000)"
fill="#000000" stroke="none">
<path d="M989 4046 c-97 -35 -134 -91 -134 -206 0 -96 23 -143 90 -185 l48
-30 1567 0 1567 0 48 30 c67 42 90 89 90 185 0 96 -23 143 -90 185 l-48 30
-1551 2 c-1251 2 -1558 0 -1587 -11z"/>
<path d="M989 2766 c-97 -35 -134 -91 -134 -206 0 -96 23 -143 90 -185 l48
-30 1567 0 1567 0 48 30 c67 42 90 89 90 185 0 96 -23 143 -90 185 l-48 30
-1551 2 c-1251 2 -1558 0 -1587 -11z"/>
<path d="M989 1486 c-97 -35 -134 -91 -134 -206 0 -96 23 -143 90 -185 l48
-30 1567 0 1567 0 48 30 c67 42 90 89 90 185 0 96 -23 143 -90 185 l-48 30
-1551 2 c-1251 2 -1558 0 -1587 -11z"/>
</g>
</svg>
