<svg width="684" height="357" viewBox="0 0 684 357" fill="none" xmlns="http://www.w3.org/2000/svg">
<rect x="75.4062" y="20.698" width="27" height="127.759" transform="rotate(35.7861 75.4062 20.698)" fill="#CEB3E2" stroke="#05312F"/>
<rect x="267.683" y="245.177" width="27" height="127.759" transform="rotate(-29.9848 267.683 245.177)" fill="#05312F" stroke="#05312F"/>
<rect x="595.683" y="14.1768" width="27" height="127.759" transform="rotate(-29.9848 595.683 14.1768)" fill="#C8E6E0" stroke="#05312F"/>
<path d="M181.981 174.035L188.618 269.131L92.8974 196.363L181.981 174.035Z" fill="#05312F"/>
<path d="M108.793 180.579L196.289 158.649L202.808 252.05L108.793 180.579Z" fill="#BFD0A0" stroke="#05312F"/>
<path d="M440.673 55.4903L526.523 92.8399L418.386 147.582L440.673 55.4903Z" fill="#05312F"/>
<path d="M417.883 125.763L439.775 35.3027L524.104 71.9907L417.883 125.763Z" fill="#F4CF69" stroke="#05312F"/>
<path d="M271.5 27L280.368 50.8389H309.067L285.849 65.5722L294.718 89.4111L271.5 74.6778L248.282 89.4111L257.151 65.5722L233.933 50.8389H262.632L271.5 27Z" fill="#05312F"/>
<path d="M286.5 20.434L294.9 43.0132L295.021 43.3389H295.368H322.346L300.581 57.15L300.239 57.367L300.381 57.7465L308.731 80.1928L286.768 66.2557L286.5 66.0857L286.232 66.2557L264.269 80.1928L272.619 57.7465L272.761 57.367L272.419 57.15L250.654 43.3389H277.632H277.979L278.1 43.0132L286.5 20.434Z" fill="#F4CF69" stroke="black"/>
<path d="M552.5 272L561.368 295.839H590.067L566.849 310.572L575.718 334.411L552.5 319.678L529.282 334.411L538.151 310.572L514.933 295.839H543.632L552.5 272Z" fill="#05312F"/>
<path d="M567.5 265.434L575.9 288.013L576.021 288.339H576.368H603.346L581.581 302.15L581.239 302.367L581.381 302.747L589.731 325.193L567.768 311.256L567.5 311.086L567.232 311.256L545.269 325.193L553.619 302.747L553.761 302.367L553.419 302.15L531.654 288.339H558.632H558.979L559.1 288.013L567.5 265.434Z" fill="#BFD0A0" stroke="black"/>
<ellipse cx="421" cy="264" rx="31" ry="30" fill="#05312F"/>
<path d="M459.5 251C459.5 267.277 445.86 280.5 429 280.5C412.14 280.5 398.5 267.277 398.5 251C398.5 234.723 412.14 221.5 429 221.5C445.86 221.5 459.5 234.723 459.5 251Z" fill="#C8E6E0" stroke="#05312F"/>
<path d="M86.5 311C86.5 327.277 72.8603 340.5 56 340.5C39.1397 340.5 25.5 327.277 25.5 311C25.5 294.723 39.1397 281.5 56 281.5C72.8603 281.5 86.5 294.723 86.5 311Z" fill="#F4CF69" stroke="#05312F"/>
</svg>
